<mxfile host="app.diagrams.net" modified="2023-06-15T22:31:13.281Z" agent="Mozilla/5.0 (X11; Linux x86_64; rv:109.0) Gecko/20100101 Firefox/113.0" etag="CcQDutEa5vwVgPQpaJeQ" version="21.3.7" type="github">
  <diagram name="Página-1" id="WvmQINZ_7OzMs90h_zgO">
    <mxGraphModel dx="1972" dy="2092" grid="1" gridSize="10" guides="1" tooltips="1" connect="1" arrows="1" fold="1" page="1" pageScale="1" pageWidth="827" pageHeight="1169" math="0" shadow="0">
      <root>
        <mxCell id="0" />
        <mxCell id="1" parent="0" />
        <mxCell id="qej-pxlwRuDXfuUSquyV-24" style="edgeStyle=orthogonalEdgeStyle;rounded=0;orthogonalLoop=1;jettySize=auto;html=1;exitX=0.5;exitY=1;exitDx=0;exitDy=0;" parent="1" source="qej-pxlwRuDXfuUSquyV-23" edge="1">
          <mxGeometry relative="1" as="geometry">
            <mxPoint x="-299.66666666666663" y="-140.0000000000001" as="targetPoint" />
          </mxGeometry>
        </mxCell>
        <mxCell id="qej-pxlwRuDXfuUSquyV-23" value="Início de ato" style="ellipse;whiteSpace=wrap;html=1;" parent="1" vertex="1">
          <mxGeometry x="-360" y="-250" width="120" height="80" as="geometry" />
        </mxCell>
        <mxCell id="qej-pxlwRuDXfuUSquyV-27" style="edgeStyle=orthogonalEdgeStyle;rounded=0;orthogonalLoop=1;jettySize=auto;html=1;exitX=0.5;exitY=1;exitDx=0;exitDy=0;" parent="1" source="qej-pxlwRuDXfuUSquyV-26" edge="1">
          <mxGeometry relative="1" as="geometry">
            <mxPoint x="-300" as="targetPoint" />
          </mxGeometry>
        </mxCell>
        <mxCell id="qej-pxlwRuDXfuUSquyV-59" style="edgeStyle=orthogonalEdgeStyle;rounded=0;orthogonalLoop=1;jettySize=auto;html=1;exitX=0;exitY=0.5;exitDx=0;exitDy=0;entryX=1;entryY=0.5;entryDx=0;entryDy=0;" parent="1" source="qej-pxlwRuDXfuUSquyV-26" target="qej-pxlwRuDXfuUSquyV-29" edge="1">
          <mxGeometry relative="1" as="geometry" />
        </mxCell>
        <mxCell id="qej-pxlwRuDXfuUSquyV-26" value="Contém um evento inicial?" style="rhombus;whiteSpace=wrap;html=1;" parent="1" vertex="1">
          <mxGeometry x="-350" y="-140" width="100" height="100" as="geometry" />
        </mxCell>
        <mxCell id="qej-pxlwRuDXfuUSquyV-45" style="edgeStyle=orthogonalEdgeStyle;rounded=0;orthogonalLoop=1;jettySize=auto;html=1;exitX=1;exitY=0.5;exitDx=0;exitDy=0;entryX=0;entryY=0.5;entryDx=0;entryDy=0;" parent="1" source="qej-pxlwRuDXfuUSquyV-28" target="qej-pxlwRuDXfuUSquyV-43" edge="1">
          <mxGeometry relative="1" as="geometry" />
        </mxCell>
        <mxCell id="qej-pxlwRuDXfuUSquyV-46" style="edgeStyle=orthogonalEdgeStyle;rounded=0;orthogonalLoop=1;jettySize=auto;html=1;exitX=0.5;exitY=1;exitDx=0;exitDy=0;entryX=0.5;entryY=0;entryDx=0;entryDy=0;" parent="1" source="qej-pxlwRuDXfuUSquyV-28" target="qej-pxlwRuDXfuUSquyV-32" edge="1">
          <mxGeometry relative="1" as="geometry" />
        </mxCell>
        <mxCell id="qej-pxlwRuDXfuUSquyV-28" value="Iniciar jogatina" style="rounded=0;whiteSpace=wrap;html=1;" parent="1" vertex="1">
          <mxGeometry x="-360" width="120" height="60" as="geometry" />
        </mxCell>
        <mxCell id="qej-pxlwRuDXfuUSquyV-57" style="edgeStyle=orthogonalEdgeStyle;rounded=0;orthogonalLoop=1;jettySize=auto;html=1;exitX=0.5;exitY=1;exitDx=0;exitDy=0;entryX=0;entryY=0.5;entryDx=0;entryDy=0;" parent="1" source="qej-pxlwRuDXfuUSquyV-29" target="qej-pxlwRuDXfuUSquyV-28" edge="1">
          <mxGeometry relative="1" as="geometry" />
        </mxCell>
        <mxCell id="qej-pxlwRuDXfuUSquyV-29" value="Disparar evento" style="rounded=0;whiteSpace=wrap;html=1;" parent="1" vertex="1">
          <mxGeometry x="-520" y="-120" width="130" height="60" as="geometry" />
        </mxCell>
        <mxCell id="qej-pxlwRuDXfuUSquyV-35" style="edgeStyle=orthogonalEdgeStyle;rounded=0;orthogonalLoop=1;jettySize=auto;html=1;entryX=0.5;entryY=0;entryDx=0;entryDy=0;" parent="1" source="qej-pxlwRuDXfuUSquyV-32" target="qej-pxlwRuDXfuUSquyV-34" edge="1">
          <mxGeometry relative="1" as="geometry" />
        </mxCell>
        <mxCell id="qej-pxlwRuDXfuUSquyV-37" style="edgeStyle=orthogonalEdgeStyle;rounded=0;orthogonalLoop=1;jettySize=auto;html=1;exitX=0;exitY=0.5;exitDx=0;exitDy=0;entryX=1;entryY=0.5;entryDx=0;entryDy=0;" parent="1" source="qej-pxlwRuDXfuUSquyV-32" target="qej-pxlwRuDXfuUSquyV-36" edge="1">
          <mxGeometry relative="1" as="geometry" />
        </mxCell>
        <mxCell id="qej-pxlwRuDXfuUSquyV-32" value="Contém um chefe?" style="rhombus;whiteSpace=wrap;html=1;" parent="1" vertex="1">
          <mxGeometry x="-350" y="90" width="100" height="100" as="geometry" />
        </mxCell>
        <mxCell id="qej-pxlwRuDXfuUSquyV-41" style="edgeStyle=orthogonalEdgeStyle;rounded=0;orthogonalLoop=1;jettySize=auto;html=1;exitX=0.5;exitY=1;exitDx=0;exitDy=0;" parent="1" source="qej-pxlwRuDXfuUSquyV-51" target="qej-pxlwRuDXfuUSquyV-39" edge="1">
          <mxGeometry relative="1" as="geometry" />
        </mxCell>
        <mxCell id="qej-pxlwRuDXfuUSquyV-53" style="edgeStyle=orthogonalEdgeStyle;rounded=0;orthogonalLoop=1;jettySize=auto;html=1;exitX=1;exitY=0.5;exitDx=0;exitDy=0;entryX=0;entryY=0.5;entryDx=0;entryDy=0;" parent="1" source="qej-pxlwRuDXfuUSquyV-34" target="qej-pxlwRuDXfuUSquyV-51" edge="1">
          <mxGeometry relative="1" as="geometry" />
        </mxCell>
        <mxCell id="qej-pxlwRuDXfuUSquyV-34" value="Encerrar jogatina" style="rounded=0;whiteSpace=wrap;html=1;" parent="1" vertex="1">
          <mxGeometry x="-360" y="210" width="120" height="60" as="geometry" />
        </mxCell>
        <mxCell id="qej-pxlwRuDXfuUSquyV-38" style="edgeStyle=orthogonalEdgeStyle;rounded=0;orthogonalLoop=1;jettySize=auto;html=1;exitX=0.5;exitY=1;exitDx=0;exitDy=0;entryX=0;entryY=0.5;entryDx=0;entryDy=0;" parent="1" source="qej-pxlwRuDXfuUSquyV-36" target="qej-pxlwRuDXfuUSquyV-34" edge="1">
          <mxGeometry relative="1" as="geometry" />
        </mxCell>
        <mxCell id="qej-pxlwRuDXfuUSquyV-36" value="Enfrentar chefe" style="rounded=0;whiteSpace=wrap;html=1;" parent="1" vertex="1">
          <mxGeometry x="-520" y="110" width="130" height="60" as="geometry" />
        </mxCell>
        <mxCell id="qej-pxlwRuDXfuUSquyV-39" value="Fim de ato" style="ellipse;whiteSpace=wrap;html=1;" parent="1" vertex="1">
          <mxGeometry x="-360" y="314" width="120" height="80" as="geometry" />
        </mxCell>
        <mxCell id="qej-pxlwRuDXfuUSquyV-47" style="edgeStyle=orthogonalEdgeStyle;rounded=0;orthogonalLoop=1;jettySize=auto;html=1;exitX=0.5;exitY=1;exitDx=0;exitDy=0;entryX=1;entryY=0.5;entryDx=0;entryDy=0;" parent="1" source="qej-pxlwRuDXfuUSquyV-43" target="qej-pxlwRuDXfuUSquyV-32" edge="1">
          <mxGeometry relative="1" as="geometry" />
        </mxCell>
        <mxCell id="qej-pxlwRuDXfuUSquyV-43" value="Explorar" style="rounded=0;whiteSpace=wrap;html=1;" parent="1" vertex="1">
          <mxGeometry x="-200" width="70" height="60" as="geometry" />
        </mxCell>
        <mxCell id="qej-pxlwRuDXfuUSquyV-48" value="V" style="text;html=1;strokeColor=none;fillColor=none;align=center;verticalAlign=middle;whiteSpace=wrap;rounded=0;labelBackgroundColor=default;" parent="1" vertex="1">
          <mxGeometry x="-390" y="-105" width="60" height="30" as="geometry" />
        </mxCell>
        <mxCell id="qej-pxlwRuDXfuUSquyV-50" value="V" style="text;html=1;strokeColor=none;fillColor=none;align=center;verticalAlign=middle;whiteSpace=wrap;rounded=0;labelBackgroundColor=default;" parent="1" vertex="1">
          <mxGeometry x="-400" y="125" width="60" height="30" as="geometry" />
        </mxCell>
        <mxCell id="qej-pxlwRuDXfuUSquyV-51" value="Próximo evento" style="rounded=0;whiteSpace=wrap;html=1;" parent="1" vertex="1">
          <mxGeometry x="-200" y="210" width="70" height="60" as="geometry" />
        </mxCell>
        <mxCell id="KAW4L1ua3SufrIuBhh7F-22" style="edgeStyle=orthogonalEdgeStyle;rounded=0;orthogonalLoop=1;jettySize=auto;html=1;exitX=0.5;exitY=0;exitDx=0;exitDy=0;entryX=0.5;entryY=0;entryDx=0;entryDy=0;" edge="1" parent="1" source="fdEjfGz4mx9lrLQEBJMP-10" target="KAW4L1ua3SufrIuBhh7F-2">
          <mxGeometry relative="1" as="geometry" />
        </mxCell>
        <mxCell id="KAW4L1ua3SufrIuBhh7F-26" value="" style="edgeStyle=orthogonalEdgeStyle;rounded=0;orthogonalLoop=1;jettySize=auto;html=1;" edge="1" parent="1" source="fdEjfGz4mx9lrLQEBJMP-10" target="KAW4L1ua3SufrIuBhh7F-1">
          <mxGeometry relative="1" as="geometry" />
        </mxCell>
        <mxCell id="fdEjfGz4mx9lrLQEBJMP-10" value="Início" style="ellipse;whiteSpace=wrap;html=1;" parent="1" vertex="1">
          <mxGeometry x="70" y="60" width="120" height="80" as="geometry" />
        </mxCell>
        <mxCell id="fdEjfGz4mx9lrLQEBJMP-19" value="&lt;div&gt;Fim&lt;/div&gt;" style="ellipse;whiteSpace=wrap;html=1;" parent="1" vertex="1">
          <mxGeometry x="360" y="180" width="120" height="80" as="geometry" />
        </mxCell>
        <mxCell id="KAW4L1ua3SufrIuBhh7F-6" value="" style="edgeStyle=orthogonalEdgeStyle;rounded=0;orthogonalLoop=1;jettySize=auto;html=1;" edge="1" parent="1" source="KAW4L1ua3SufrIuBhh7F-1" target="KAW4L1ua3SufrIuBhh7F-2">
          <mxGeometry relative="1" as="geometry" />
        </mxCell>
        <mxCell id="KAW4L1ua3SufrIuBhh7F-1" value="Introdução" style="shape=step;perimeter=stepPerimeter;whiteSpace=wrap;html=1;fixedSize=1;" vertex="1" parent="1">
          <mxGeometry x="210" y="60" width="120" height="80" as="geometry" />
        </mxCell>
        <mxCell id="KAW4L1ua3SufrIuBhh7F-27" style="edgeStyle=orthogonalEdgeStyle;rounded=0;orthogonalLoop=1;jettySize=auto;html=1;" edge="1" parent="1" source="KAW4L1ua3SufrIuBhh7F-2" target="KAW4L1ua3SufrIuBhh7F-7">
          <mxGeometry relative="1" as="geometry">
            <Array as="points">
              <mxPoint x="402" y="160" />
              <mxPoint x="130" y="160" />
            </Array>
          </mxGeometry>
        </mxCell>
        <mxCell id="KAW4L1ua3SufrIuBhh7F-2" value="Ato" style="shape=process;whiteSpace=wrap;html=1;backgroundOutline=1;" vertex="1" parent="1">
          <mxGeometry x="354" y="70" width="96" height="60" as="geometry" />
        </mxCell>
        <mxCell id="KAW4L1ua3SufrIuBhh7F-10" value="" style="edgeStyle=orthogonalEdgeStyle;rounded=0;orthogonalLoop=1;jettySize=auto;html=1;" edge="1" parent="1" source="KAW4L1ua3SufrIuBhh7F-17" target="fdEjfGz4mx9lrLQEBJMP-19">
          <mxGeometry relative="1" as="geometry" />
        </mxCell>
        <mxCell id="KAW4L1ua3SufrIuBhh7F-19" style="edgeStyle=orthogonalEdgeStyle;rounded=0;orthogonalLoop=1;jettySize=auto;html=1;exitX=1;exitY=0.5;exitDx=0;exitDy=0;" edge="1" parent="1" source="KAW4L1ua3SufrIuBhh7F-7" target="KAW4L1ua3SufrIuBhh7F-17">
          <mxGeometry relative="1" as="geometry" />
        </mxCell>
        <mxCell id="KAW4L1ua3SufrIuBhh7F-7" value="&amp;nbsp;&amp;nbsp;&amp;nbsp;&amp;nbsp; Encerramento" style="shape=step;perimeter=stepPerimeter;whiteSpace=wrap;html=1;fixedSize=1;align=center;" vertex="1" parent="1">
          <mxGeometry x="70" y="180" width="120" height="80" as="geometry" />
        </mxCell>
        <mxCell id="KAW4L1ua3SufrIuBhh7F-17" value="Pós-&#xa;encerramento" style="shape=step;perimeter=stepPerimeter;fixedSize=1;align=center;labelBackgroundColor=none;labelBorderColor=none;whiteSpace=wrap;" vertex="1" parent="1">
          <mxGeometry x="205" y="180" width="130" height="80" as="geometry" />
        </mxCell>
      </root>
    </mxGraphModel>
  </diagram>
</mxfile>
